<svg xmlns="http://www.w3.org/2000/svg" viewBox="0 0 700 380" width="700" height="380" style="background-color: #0f172a; font-family: system-ui, -apple-system, sans-serif;">
  <defs>
    <linearGradient id="barGrad" x1="0" y1="0" x2="1" y2="0">
      <stop offset="0%" stop-color="#6366f1" stop-opacity="0.8"/>
      <stop offset="100%" stop-color="#6366f1"/>
    </linearGradient>
  </defs>
  <text x="350" y="35" text-anchor="middle" fill="#f8fafc" font-size="18" font-weight="700">CommitIt Score by Repository</text>
  <text x="150" y="99.66666666666667" text-anchor="end" fill="#94a3b8" font-size="13">FastAPI</text>
  <rect x="160" y="81.66666666666667" width="500" height="26" rx="4" fill="#1e293b"/>
  <rect x="160" y="81.66666666666667" width="453.99999999999994" height="26" rx="4" fill="url(#barGrad)"/>
  <text x="624.0" y="99.66666666666667" fill="#38bdf8" font-size="13" font-weight="600">90.8%</text>
  <text x="150" y="147.33333333333334" text-anchor="end" fill="#94a3b8" font-size="13">React</text>
  <rect x="160" y="129.33333333333334" width="500" height="26" rx="4" fill="#1e293b"/>
  <rect x="160" y="129.33333333333334" width="434.50000000000006" height="26" rx="4" fill="url(#barGrad)"/>
  <text x="604.5" y="147.33333333333334" fill="#38bdf8" font-size="13" font-weight="600">86.9%</text>
  <text x="150" y="195.0" text-anchor="end" fill="#94a3b8" font-size="13">Flask</text>
  <rect x="160" y="177.0" width="500" height="26" rx="4" fill="#1e293b"/>
  <rect x="160" y="177.0" width="439.5" height="26" rx="4" fill="url(#barGrad)"/>
  <text x="609.5" y="195.0" fill="#38bdf8" font-size="13" font-weight="600">87.9%</text>
  <text x="150" y="242.66666666666669" text-anchor="end" fill="#94a3b8" font-size="13">Express</text>
  <rect x="160" y="224.66666666666669" width="500" height="26" rx="4" fill="#1e293b"/>
  <rect x="160" y="224.66666666666669" width="428.0" height="26" rx="4" fill="url(#barGrad)"/>
  <text x="598.0" y="242.66666666666669" fill="#38bdf8" font-size="13" font-weight="600">85.6%</text>
  <text x="150" y="290.33333333333337" text-anchor="end" fill="#94a3b8" font-size="13">Django</text>
  <rect x="160" y="272.33333333333337" width="500" height="26" rx="4" fill="#1e293b"/>
  <rect x="160" y="272.33333333333337" width="469.0" height="26" rx="4" fill="url(#barGrad)"/>
  <text x="639.0" y="290.33333333333337" fill="#38bdf8" font-size="13" font-weight="600">93.8%</text>
</svg>